# xmcd
#
# Track frame offsets: 
#        150
#        10838
#        21961
#        32403
#        43939
#        55640
#        68017
#        77191
#        88394
#        99711
#        108979
#        119588
#        130248
#        141040
#        152312
#        162862
#        172426
#        182279
#        194273
#        204907
#        219652
#        229986
#        240609
#        253252
#        266616
#        276963
#        291204
#        304208
#
# Disc length: 4237 seconds
#
# Revision: 0
# Processed by: cddbd v1.5.2PL0 Copyright (c) Steve Scherf et al.
# Submitted via: ExactAudioCopy v1.0b3
#
DISCID=97108b1c
DTITLE=The Louvin Brothers - The Christian Life CD3
DYEAR=2013
DGENRE=Country
TTITLE0=Making Believe
TTITLE1=Have I Stayed Away Too Long?
TTITLE2=Call Me
TTITLE3=Dog Sled
TTITLE4=When I Loved You
TTITLE5=My Baby's Gone
TTITLE6=Are You Wasting My Time?
TTITLE7=Curly Headed Baby
TTITLE8=I Wish It Had Been A Dream
TTITLE9=While You're Cheatin' On Me 
TTITLE10=If I Could Only Win Your Love
TTITLE11=You're Learning
TTITLE12=Today
TTITLE13=My Heart Was Trampled On The Street
TTITLE14=Send Me The Pillow (That You Dream On)
TTITLE15=On My Way To The Show
TTITLE16=Read What's In My Heart
TTITLE17=Red Hen Hop
TTITLE18=She Will Get Lonesome
TTITLE19=I Wonder If You Know
TTITLE20=Blue
TTITLE21=The Angels Rejoiced Last Night
TTITLE22=Dying From Home And Lost
TTITLE23=Satan's Jeweled Crown
TTITLE24=The River Of Jordan
TTITLE25=I'm Ready To Go Home
TTITLE26=The Kneeling Drunkard's Plea
TTITLE27=Satan Is Real
EXTD=
EXTT0=
EXTT1=
EXTT2=
EXTT3=
EXTT4=
EXTT5=
EXTT6=
EXTT7=
EXTT8=
EXTT9=
EXTT10=
EXTT11=
EXTT12=
EXTT13=
EXTT14=
EXTT15=
EXTT16=
EXTT17=
EXTT18=
EXTT19=
EXTT20=
EXTT21=
EXTT22=
EXTT23=
EXTT24=
EXTT25=
EXTT26=
EXTT27=
PLAYORDER=
